<svg xmlns="http://www.w3.org/2000/svg" viewBox="0 0 624 384" width="624" height="384" shape-rendering="crispEdges"><rect x="0" y="0" width="624" height="384" fill="rgb(255, 255, 255)"/><rect x="480" y="96" width="16" height="8" fill="rgb(26, 46, 59)"/><rect x="480" y="104" width="16" height="8" fill="rgb(26, 46, 59)"/><rect x="480" y="112" width="16" height="8" fill="rgb(26, 46, 59)"/><rect x="480" y="120" width="16" height="8" fill="rgb(26, 46, 59)"/><rect x="480" y="128" width="16" height="8" fill="rgb(26, 46, 59)"/><rect x="480" y="136" width="16" height="8" fill="rgb(26, 46, 59)"/><rect x="392" y="144" width="24" height="8" fill="rgb(108, 155, 210)"/><rect x="480" y="144" width="16" height="8" fill="rgb(26, 46, 59)"/><rect x="376" y="152" width="56" height="8" fill="rgb(108, 155, 210)"/><rect x="480" y="152" width="16" height="8" fill="rgb(26, 46, 59)"/><rect x="376" y="160" width="48" height="8" fill="rgb(108, 155, 210)"/><rect x="424" y="160" width="8" height="8" fill="rgb(255, 255, 255)"/><rect x="480" y="160" width="16" height="8" fill="rgb(26, 46, 59)"/><rect x="368" y="168" width="48" height="8" fill="rgb(108, 155, 210)"/><rect x="416" y="168" width="8" height="8" fill="rgb(255, 255, 255)"/><rect x="424" y="168" width="16" height="8" fill="rgb(108, 155, 210)"/><rect x="480" y="168" width="16" height="8" fill="rgb(26, 46, 59)"/><rect x="48" y="176" width="320" height="8" fill="rgb(184, 200, 209)"/><rect x="368" y="176" width="8" height="8" fill="rgb(108, 155, 210)"/><rect x="376" y="176" width="8" height="8" fill="rgb(255, 255, 255)"/><rect x="384" y="176" width="24" height="8" fill="rgb(108, 155, 210)"/><rect x="408" y="176" width="8" height="8" fill="rgb(255, 255, 255)"/><rect x="416" y="176" width="24" height="8" fill="rgb(108, 155, 210)"/><rect x="440" y="176" width="40" height="8" fill="rgb(184, 200, 209)"/><rect x="480" y="176" width="16" height="8" fill="rgb(26, 46, 59)"/><rect x="48" y="184" width="320" height="8" fill="rgb(184, 200, 209)"/><rect x="368" y="184" width="16" height="8" fill="rgb(108, 155, 210)"/><rect x="384" y="184" width="8" height="8" fill="rgb(255, 255, 255)"/><rect x="392" y="184" width="8" height="8" fill="rgb(108, 155, 210)"/><rect x="400" y="184" width="8" height="8" fill="rgb(255, 255, 255)"/><rect x="408" y="184" width="32" height="8" fill="rgb(108, 155, 210)"/><rect x="440" y="184" width="40" height="8" fill="rgb(184, 200, 209)"/><rect x="480" y="184" width="16" height="8" fill="rgb(26, 46, 59)"/><rect x="376" y="192" width="16" height="8" fill="rgb(108, 155, 210)"/><rect x="392" y="192" width="8" height="8" fill="rgb(255, 255, 255)"/><rect x="400" y="192" width="32" height="8" fill="rgb(108, 155, 210)"/><rect x="480" y="192" width="16" height="8" fill="rgb(26, 46, 59)"/><rect x="376" y="200" width="56" height="8" fill="rgb(108, 155, 210)"/><rect x="480" y="200" width="16" height="8" fill="rgb(26, 46, 59)"/><rect x="392" y="208" width="24" height="8" fill="rgb(108, 155, 210)"/><rect x="480" y="208" width="16" height="8" fill="rgb(26, 46, 59)"/><rect x="480" y="216" width="16" height="8" fill="rgb(26, 46, 59)"/><rect x="480" y="224" width="16" height="8" fill="rgb(26, 46, 59)"/><rect x="480" y="232" width="16" height="8" fill="rgb(26, 46, 59)"/><rect x="480" y="240" width="16" height="8" fill="rgb(26, 46, 59)"/><rect x="480" y="248" width="16" height="8" fill="rgb(26, 46, 59)"/><rect x="480" y="256" width="16" height="8" fill="rgb(26, 46, 59)"/><rect x="512" y="288" width="8" height="8" fill="rgb(26, 46, 59)"/><rect x="408" y="296" width="16" height="8" fill="rgb(26, 46, 59)"/><rect x="432" y="296" width="32" height="8" fill="rgb(26, 46, 59)"/><rect x="512" y="296" width="8" height="8" fill="rgb(26, 46, 59)"/><rect x="408" y="304" width="8" height="8" fill="rgb(26, 46, 59)"/><rect x="432" y="304" width="8" height="8" fill="rgb(26, 46, 59)"/><rect x="456" y="304" width="8" height="8" fill="rgb(26, 46, 59)"/><rect x="480" y="304" width="80" height="8" fill="rgb(26, 46, 59)"/><rect x="408" y="312" width="8" height="8" fill="rgb(26, 46, 59)"/><rect x="432" y="312" width="32" height="8" fill="rgb(26, 46, 59)"/><rect x="504" y="312" width="8" height="8" fill="rgb(26, 46, 59)"/><rect x="408" y="320" width="16" height="8" fill="rgb(26, 46, 59)"/><rect x="432" y="320" width="32" height="8" fill="rgb(26, 46, 59)"/><rect x="496" y="320" width="8" height="8" fill="rgb(26, 46, 59)"/><rect x="528" y="320" width="8" height="8" fill="rgb(26, 46, 59)"/><rect x="408" y="328" width="8" height="8" fill="rgb(26, 46, 59)"/><rect x="432" y="328" width="8" height="8" fill="rgb(26, 46, 59)"/><rect x="456" y="328" width="8" height="8" fill="rgb(26, 46, 59)"/><rect x="496" y="328" width="8" height="8" fill="rgb(26, 46, 59)"/><rect x="528" y="328" width="8" height="8" fill="rgb(26, 46, 59)"/><rect x="408" y="336" width="8" height="8" fill="rgb(26, 46, 59)"/><rect x="432" y="336" width="32" height="8" fill="rgb(26, 46, 59)"/><rect x="488" y="336" width="16" height="8" fill="rgb(26, 46, 59)"/><rect x="512" y="336" width="40" height="8" fill="rgb(26, 46, 59)"/><rect x="408" y="344" width="8" height="8" fill="rgb(26, 46, 59)"/><rect x="440" y="344" width="16" height="8" fill="rgb(26, 46, 59)"/><rect x="480" y="344" width="8" height="8" fill="rgb(26, 46, 59)"/><rect x="496" y="344" width="8" height="8" fill="rgb(26, 46, 59)"/><rect x="528" y="344" width="8" height="8" fill="rgb(26, 46, 59)"/><rect x="432" y="352" width="8" height="8" fill="rgb(26, 46, 59)"/><rect x="448" y="352" width="8" height="8" fill="rgb(26, 46, 59)"/><rect x="496" y="352" width="8" height="8" fill="rgb(26, 46, 59)"/><rect x="528" y="352" width="8" height="8" fill="rgb(26, 46, 59)"/><rect x="424" y="360" width="8" height="8" fill="rgb(26, 46, 59)"/><rect x="448" y="360" width="24" height="8" fill="rgb(26, 46, 59)"/><rect x="496" y="360" width="64" height="8" fill="rgb(26, 46, 59)"/><rect x="496" y="368" width="8" height="8" fill="rgb(26, 46, 59)"/></svg>